<mxfile host="app.diagrams.net" modified="2023-11-29T22:29:33.013Z" agent="Mozilla/5.0 (Windows NT 10.0; Win64; x64) AppleWebKit/537.36 (KHTML, like Gecko) Chrome/119.0.0.0 Safari/537.36" etag="8oeNpTx1eTY_u9Zsy_6f" version="22.1.5" type="device">
  <diagram name="Page-1" id="nzggeu16PDCvvuKHoCcy">
    <mxGraphModel dx="2630" dy="3050" grid="1" gridSize="10" guides="1" tooltips="1" connect="1" arrows="1" fold="1" page="1" pageScale="1" pageWidth="850" pageHeight="1100" math="0" shadow="0">
      <root>
        <mxCell id="0" />
        <mxCell id="1" parent="0" />
        <mxCell id="qFS1p4M_tx-uN5BhEeRU-1" value="" style="whiteSpace=wrap;html=1;rounded=0;shadow=0;labelBackgroundColor=none;strokeColor=#666666;strokeWidth=1;fillColor=#f5f5f5;fontFamily=Verdana;fontSize=12;fontColor=#333333;align=center;comic=1;" parent="1" vertex="1">
          <mxGeometry x="270" y="100" width="1060" height="2960" as="geometry" />
        </mxCell>
        <mxCell id="qFS1p4M_tx-uN5BhEeRU-2" value="LOGO" style="whiteSpace=wrap;html=1;rounded=0;shadow=0;labelBackgroundColor=none;strokeWidth=1;fontFamily=Verdana;fontSize=28;align=center;comic=1;" parent="1" vertex="1">
          <mxGeometry x="300" y="135" width="130" height="105" as="geometry" />
        </mxCell>
        <mxCell id="qFS1p4M_tx-uN5BhEeRU-3" value="Search" style="strokeWidth=1;shadow=0;dashed=0;align=center;html=1;shape=mxgraph.mockup.forms.searchBox;strokeColor=#999999;mainText=;strokeColor2=#008cff;fontColor=#666666;fontSize=17;align=left;spacingLeft=3;rounded=0;labelBackgroundColor=none;comic=1;" parent="1" vertex="1">
          <mxGeometry x="810" y="-30" width="270" height="45" as="geometry" />
        </mxCell>
        <mxCell id="qFS1p4M_tx-uN5BhEeRU-4" value="" style="line;strokeWidth=1;html=1;rounded=0;shadow=0;labelBackgroundColor=none;fillColor=none;fontFamily=Verdana;fontSize=14;fontColor=#000000;align=center;comic=1;" parent="1" vertex="1">
          <mxGeometry x="270" y="220" width="1060" height="130" as="geometry" />
        </mxCell>
        <mxCell id="qFS1p4M_tx-uN5BhEeRU-5" value="" style="whiteSpace=wrap;html=1;rounded=0;shadow=0;labelBackgroundColor=none;strokeWidth=1;fillColor=none;fontFamily=Verdana;fontSize=12;align=center;comic=1;" parent="1" vertex="1">
          <mxGeometry x="1130" y="-70" width="1040" height="50" as="geometry" />
        </mxCell>
        <mxCell id="qFS1p4M_tx-uN5BhEeRU-6" value="Page 1" style="text;html=1;points=[];align=left;verticalAlign=top;spacingTop=-4;fontSize=14;fontFamily=Verdana" parent="1" vertex="1">
          <mxGeometry x="1345" y="-52.5" width="60" height="20" as="geometry" />
        </mxCell>
        <mxCell id="qFS1p4M_tx-uN5BhEeRU-7" value="Page 2" style="text;html=1;points=[];align=left;verticalAlign=top;spacingTop=-4;fontSize=14;fontFamily=Verdana" parent="1" vertex="1">
          <mxGeometry x="1492" y="-52.5" width="60" height="20" as="geometry" />
        </mxCell>
        <mxCell id="qFS1p4M_tx-uN5BhEeRU-8" value="Page 3" style="text;html=1;points=[];align=left;verticalAlign=top;spacingTop=-4;fontSize=14;fontFamily=Verdana" parent="1" vertex="1">
          <mxGeometry x="1638" y="-52.5" width="60" height="20" as="geometry" />
        </mxCell>
        <mxCell id="qFS1p4M_tx-uN5BhEeRU-9" value="Page 4" style="text;html=1;points=[];align=left;verticalAlign=top;spacingTop=-4;fontSize=14;fontFamily=Verdana" parent="1" vertex="1">
          <mxGeometry x="1785" y="-52.5" width="60" height="20" as="geometry" />
        </mxCell>
        <mxCell id="qFS1p4M_tx-uN5BhEeRU-10" value="" style="verticalLabelPosition=bottom;shadow=0;dashed=0;align=center;html=1;verticalAlign=top;strokeWidth=1;shape=mxgraph.mockup.graphics.simpleIcon;strokeColor=#999999;rounded=0;labelBackgroundColor=none;fontFamily=Verdana;fontSize=14;fontColor=#000000;comic=1;" parent="1" vertex="1">
          <mxGeometry x="390" y="310" width="770" height="200" as="geometry" />
        </mxCell>
        <mxCell id="qFS1p4M_tx-uN5BhEeRU-11" value="Footer" style="whiteSpace=wrap;html=1;rounded=0;shadow=0;labelBackgroundColor=none;strokeWidth=1;fillColor=none;fontFamily=Verdana;fontSize=12;align=center;comic=1;" parent="1" vertex="1">
          <mxGeometry x="285" y="2530" width="1020" height="490" as="geometry" />
        </mxCell>
        <mxCell id="qFS1p4M_tx-uN5BhEeRU-12" value="Enrol / Enquire" style="whiteSpace=wrap;html=1;rounded=0;shadow=0;labelBackgroundColor=none;strokeWidth=1;fontFamily=Verdana;fontSize=28;align=center;comic=1;" parent="1" vertex="1">
          <mxGeometry x="1530" y="340" width="230" height="50" as="geometry" />
        </mxCell>
        <mxCell id="qFS1p4M_tx-uN5BhEeRU-13" value="Descriptipon" style="whiteSpace=wrap;html=1;rounded=0;shadow=0;labelBackgroundColor=none;strokeWidth=1;fillColor=none;fontFamily=Verdana;fontSize=12;align=center;comic=1;" parent="1" vertex="1">
          <mxGeometry x="395" y="680" width="460" height="380" as="geometry" />
        </mxCell>
        <mxCell id="qFS1p4M_tx-uN5BhEeRU-14" value="" style="verticalLabelPosition=bottom;shadow=0;dashed=0;align=center;html=1;verticalAlign=top;strokeWidth=1;shape=mxgraph.mockup.graphics.simpleIcon;strokeColor=#999999;rounded=0;labelBackgroundColor=none;fontFamily=Verdana;fontSize=14;fontColor=#000000;comic=1;" parent="1" vertex="1">
          <mxGeometry x="913" y="740" width="287" height="220" as="geometry" />
        </mxCell>
        <mxCell id="qFS1p4M_tx-uN5BhEeRU-15" value="" style="verticalLabelPosition=bottom;shadow=0;dashed=0;align=center;html=1;verticalAlign=top;strokeWidth=1;shape=mxgraph.mockup.graphics.simpleIcon;strokeColor=#999999;rounded=0;labelBackgroundColor=none;fontFamily=Verdana;fontSize=14;fontColor=#000000;comic=1;" parent="1" vertex="1">
          <mxGeometry x="478" y="1300" width="287" height="220" as="geometry" />
        </mxCell>
        <mxCell id="qFS1p4M_tx-uN5BhEeRU-16" value="Descriptipon" style="whiteSpace=wrap;html=1;rounded=0;shadow=0;labelBackgroundColor=none;strokeWidth=1;fillColor=none;fontFamily=Verdana;fontSize=12;align=center;comic=1;" parent="1" vertex="1">
          <mxGeometry x="1364" y="470" width="761.5" height="220" as="geometry" />
        </mxCell>
        <mxCell id="qFS1p4M_tx-uN5BhEeRU-17" value="Heading" style="whiteSpace=wrap;html=1;rounded=0;shadow=0;labelBackgroundColor=none;strokeWidth=1;fillColor=none;fontFamily=Verdana;fontSize=12;align=center;comic=1;" parent="1" vertex="1">
          <mxGeometry x="425" y="1100" width="750" height="110" as="geometry" />
        </mxCell>
        <mxCell id="qFS1p4M_tx-uN5BhEeRU-18" value="Descriptipon" style="whiteSpace=wrap;html=1;rounded=0;shadow=0;labelBackgroundColor=none;strokeWidth=1;fillColor=none;fontFamily=Verdana;fontSize=12;align=center;comic=1;" parent="1" vertex="1">
          <mxGeometry x="875" y="1245" width="295" height="330" as="geometry" />
        </mxCell>
        <mxCell id="qFS1p4M_tx-uN5BhEeRU-19" value="Descriptipon" style="whiteSpace=wrap;html=1;rounded=0;shadow=0;labelBackgroundColor=none;strokeWidth=1;fillColor=none;fontFamily=Verdana;fontSize=12;align=center;comic=1;" parent="1" vertex="1">
          <mxGeometry x="1553" y="885.5" width="230" height="220" as="geometry" />
        </mxCell>
        <mxCell id="qFS1p4M_tx-uN5BhEeRU-20" value="Descriptipon" style="whiteSpace=wrap;html=1;rounded=0;shadow=0;labelBackgroundColor=none;strokeWidth=1;fillColor=none;fontFamily=Verdana;fontSize=12;align=center;comic=1;" parent="1" vertex="1">
          <mxGeometry x="1450" y="1080" width="230" height="220" as="geometry" />
        </mxCell>
        <mxCell id="qFS1p4M_tx-uN5BhEeRU-21" value="&lt;div style=&quot;text-align: justify&quot;&gt;Page Nav&lt;/div&gt;" style="whiteSpace=wrap;html=1;rounded=0;shadow=0;labelBackgroundColor=none;strokeWidth=1;fillColor=none;fontFamily=Verdana;fontSize=12;align=center;verticalAlign=top;spacing=10;comic=1;" parent="1" vertex="1">
          <mxGeometry x="-330" y="1400" width="561" height="90" as="geometry" />
        </mxCell>
        <mxCell id="qFS1p4M_tx-uN5BhEeRU-22" value="Dark Colour Block" style="whiteSpace=wrap;html=1;rounded=0;shadow=0;labelBackgroundColor=none;strokeWidth=1;fillColor=none;fontFamily=Verdana;fontSize=12;align=center;comic=1;" parent="1" vertex="1">
          <mxGeometry x="-220" y="1470" width="90" height="80" as="geometry" />
        </mxCell>
        <mxCell id="qFS1p4M_tx-uN5BhEeRU-23" value="Dark Colour Block" style="whiteSpace=wrap;html=1;rounded=0;shadow=0;labelBackgroundColor=none;strokeWidth=1;fillColor=none;fontFamily=Verdana;fontSize=12;align=center;comic=1;" parent="1" vertex="1">
          <mxGeometry x="-160" y="1370" width="90" height="80" as="geometry" />
        </mxCell>
        <mxCell id="qFS1p4M_tx-uN5BhEeRU-24" value="Home Page" style="text;html=1;points=[];align=left;verticalAlign=top;spacingTop=-4;fontSize=14;fontFamily=Verdana" parent="1" vertex="1">
          <mxGeometry x="1190" y="-57.5" width="60" height="20" as="geometry" />
        </mxCell>
        <mxCell id="qFS1p4M_tx-uN5BhEeRU-25" value="" style="verticalLabelPosition=bottom;shadow=0;dashed=0;align=center;html=1;verticalAlign=top;strokeWidth=1;shape=mxgraph.mockup.graphics.simpleIcon;strokeColor=#999999;rounded=0;labelBackgroundColor=none;fontFamily=Verdana;fontSize=14;fontColor=#000000;comic=1;" parent="1" vertex="1">
          <mxGeometry x="410" y="2600" width="770" height="210" as="geometry" />
        </mxCell>
        <mxCell id="qFS1p4M_tx-uN5BhEeRU-26" value="LOGO" style="whiteSpace=wrap;html=1;rounded=0;shadow=0;labelBackgroundColor=none;strokeWidth=1;fontFamily=Verdana;fontSize=28;align=center;comic=1;" parent="1" vertex="1">
          <mxGeometry x="745" y="2560" width="90" height="80" as="geometry" />
        </mxCell>
        <mxCell id="qFS1p4M_tx-uN5BhEeRU-27" value="&lt;font style=&quot;font-size: 18px;&quot;&gt;Address + Link to google maps (bg image)&lt;/font&gt;" style="whiteSpace=wrap;html=1;rounded=0;shadow=0;labelBackgroundColor=none;strokeWidth=1;fontFamily=Verdana;fontSize=28;align=center;comic=1;" parent="1" vertex="1">
          <mxGeometry x="410" y="2740" width="250" height="70" as="geometry" />
        </mxCell>
        <mxCell id="qFS1p4M_tx-uN5BhEeRU-28" value="&lt;font style=&quot;font-size: 18px;&quot;&gt;Contact us + list of info (tel, email)&lt;/font&gt;" style="whiteSpace=wrap;html=1;rounded=0;shadow=0;labelBackgroundColor=none;strokeWidth=1;fontFamily=Verdana;fontSize=28;align=center;comic=1;" parent="1" vertex="1">
          <mxGeometry x="945" y="2740" width="235" height="70" as="geometry" />
        </mxCell>
        <mxCell id="qFS1p4M_tx-uN5BhEeRU-32" value="NAV" style="ellipse;whiteSpace=wrap;html=1;aspect=fixed;fontSize=28;" parent="1" vertex="1">
          <mxGeometry x="1170" y="135" width="116.5" height="116.5" as="geometry" />
        </mxCell>
        <mxCell id="qFS1p4M_tx-uN5BhEeRU-33" value="&lt;font style=&quot;font-size: 22px;&quot;&gt;ENROL&lt;/font&gt;" style="ellipse;whiteSpace=wrap;html=1;" parent="1" vertex="1">
          <mxGeometry x="963.5" y="440" width="116.5" height="110" as="geometry" />
        </mxCell>
        <mxCell id="H4aExVZ8_yZS_6gFl43W-1" style="edgeStyle=orthogonalEdgeStyle;rounded=0;orthogonalLoop=1;jettySize=auto;html=1;exitX=0.5;exitY=1;exitDx=0;exitDy=0;" edge="1" parent="1" source="qFS1p4M_tx-uN5BhEeRU-13" target="qFS1p4M_tx-uN5BhEeRU-13">
          <mxGeometry relative="1" as="geometry" />
        </mxCell>
        <mxCell id="H4aExVZ8_yZS_6gFl43W-2" value="Heading" style="whiteSpace=wrap;html=1;rounded=0;shadow=0;labelBackgroundColor=none;strokeWidth=1;fillColor=none;fontFamily=Verdana;fontSize=12;align=center;comic=1;" vertex="1" parent="1">
          <mxGeometry x="405" y="550" width="750" height="110" as="geometry" />
        </mxCell>
        <mxCell id="H4aExVZ8_yZS_6gFl43W-3" value="Heading" style="whiteSpace=wrap;html=1;rounded=0;shadow=0;labelBackgroundColor=none;strokeWidth=1;fillColor=none;fontFamily=Verdana;fontSize=12;align=center;comic=1;" vertex="1" parent="1">
          <mxGeometry x="420" y="1620" width="750" height="110" as="geometry" />
        </mxCell>
        <mxCell id="H4aExVZ8_yZS_6gFl43W-4" value="Descriptipon" style="whiteSpace=wrap;html=1;rounded=0;shadow=0;labelBackgroundColor=none;strokeWidth=1;fillColor=none;fontFamily=Verdana;fontSize=12;align=center;comic=1;" vertex="1" parent="1">
          <mxGeometry x="450" y="1770" width="295" height="330" as="geometry" />
        </mxCell>
        <mxCell id="H4aExVZ8_yZS_6gFl43W-5" value="Descriptipon" style="whiteSpace=wrap;html=1;rounded=0;shadow=0;labelBackgroundColor=none;strokeWidth=1;fillColor=none;fontFamily=Verdana;fontSize=12;align=center;comic=1;" vertex="1" parent="1">
          <mxGeometry x="820" y="1770" width="295" height="330" as="geometry" />
        </mxCell>
        <mxCell id="H4aExVZ8_yZS_6gFl43W-6" value="Descriptipon" style="whiteSpace=wrap;html=1;rounded=0;shadow=0;labelBackgroundColor=none;strokeWidth=1;fillColor=none;fontFamily=Verdana;fontSize=12;align=center;comic=1;" vertex="1" parent="1">
          <mxGeometry x="627.5" y="2130" width="295" height="330" as="geometry" />
        </mxCell>
      </root>
    </mxGraphModel>
  </diagram>
</mxfile>
